<svg width="73" height="86" viewBox="0 0 73 86" fill="none" xmlns="http://www.w3.org/2000/svg">
<g id="Frame 3">
<path id="Vector" d="M36.5 0C46.1804 0 55.4643 3.72899 62.3094 10.3666C69.1545 17.0043 73 26.0068 73 35.3939C73 50.35 62.1623 66.6494 40.7677 84.4661C39.5781 85.4571 38.0613 86.0013 36.493 86C34.9247 85.9987 33.4089 85.4518 32.2211 84.4588L30.806 83.2682C10.3585 65.9161 0 50.0161 0 35.3939C0 26.0068 3.84553 17.0043 10.6906 10.3666C17.5357 3.72899 26.8196 0 36.5 0ZM36.5 5.44521C28.3089 5.44521 20.4533 8.6005 14.6613 14.217C8.86929 19.8334 5.61538 27.451 5.61538 35.3939C5.61538 48.1066 15.1541 62.7542 34.4934 79.1625L35.8898 80.335C36.0596 80.4766 36.2761 80.5544 36.5 80.5544C36.7239 80.5544 36.9404 80.4766 37.1102 80.335C57.3855 63.4476 67.3846 48.4079 67.3846 35.3939C67.3846 31.461 66.5858 27.5665 65.0337 23.933C63.4816 20.2995 61.2066 16.998 58.3387 14.217C55.4708 11.436 52.0661 9.22998 48.319 7.72492C44.5719 6.21986 40.5558 5.44521 36.5 5.44521ZM36.5 21.7808C40.2232 21.7808 43.794 23.2151 46.4267 25.768C49.0594 28.3209 50.5385 31.7835 50.5385 35.3939C50.5385 39.0043 49.0594 42.4668 46.4267 45.0197C43.794 47.5727 40.2232 49.0069 36.5 49.0069C32.7768 49.0069 29.206 47.5727 26.5733 45.0197C23.9406 42.4668 22.4615 39.0043 22.4615 35.3939C22.4615 31.7835 23.9406 28.3209 26.5733 25.768C29.206 23.2151 32.7768 21.7808 36.5 21.7808ZM36.5 27.226C34.2661 27.226 32.1236 28.0866 30.544 29.6183C28.9644 31.1501 28.0769 33.2276 28.0769 35.3939C28.0769 37.5601 28.9644 39.6376 30.544 41.1694C32.1236 42.7011 34.2661 43.5617 36.5 43.5617C38.7339 43.5617 40.8764 42.7011 42.456 41.1694C44.0356 39.6376 44.9231 37.5601 44.9231 35.3939C44.9231 33.2276 44.0356 31.1501 42.456 29.6183C40.8764 28.0866 38.7339 27.226 36.5 27.226Z" fill="white"/>
</g>
</svg>
